<?xml version="1.0" encoding="utf-8"?>
<!-- Generator: Adobe Illustrator 16.0.0, SVG Export Plug-In . SVG Version: 6.00 Build 0)  -->
<!DOCTYPE svg PUBLIC "-//W3C//DTD SVG 1.1//EN" "http://www.w3.org/Graphics/SVG/1.1/DTD/svg11.dtd" [
	<!ENTITY ns_flows "http://ns.adobe.com/Flows/1.0/">
	<!ENTITY ns_extend "http://ns.adobe.com/Extensibility/1.0/">
	<!ENTITY ns_ai "http://ns.adobe.com/AdobeIllustrator/10.0/">
	<!ENTITY ns_graphs "http://ns.adobe.com/Graphs/1.0/">
	<!ENTITY ns_vars "http://ns.adobe.com/Variables/1.0/">
	<!ENTITY ns_imrep "http://ns.adobe.com/ImageReplacement/1.0/">
	<!ENTITY ns_sfw "http://ns.adobe.com/SaveForWeb/1.0/">
	<!ENTITY ns_custom "http://ns.adobe.com/GenericCustomNamespace/1.0/">
	<!ENTITY ns_adobe_xpath "http://ns.adobe.com/XPath/1.0/">
]>
<svg version="1.1" xmlns:x="&ns_extend;" xmlns:i="&ns_ai;" xmlns:graph="&ns_graphs;"
	 xmlns="http://www.w3.org/2000/svg" xmlns:xlink="http://www.w3.org/1999/xlink" xmlns:a="http://ns.adobe.com/AdobeSVGViewerExtensions/3.0/"
	 x="0px" y="0px" width="750px" height="750px" viewBox="0 0 750 750" enable-background="new 0 0 750 750" xml:space="preserve">
<metadata>
	<sfw  xmlns="&ns_sfw;">
		<slices></slices>
		<sliceSourceBounds  width="1306.404" height="400.676" x="99.396" y="149.195" bottomLeftOrigin="true"></sliceSourceBounds>
	</sfw>
</metadata>
<g id="AG-ANIMALS">
	<g>
		<g id="POLYLINE_2_">
			
				<path fill="none" stroke="#FB8604" stroke-width="2.75" stroke-linecap="round" stroke-linejoin="round" stroke-miterlimit="10" d="
				M378.81,570.17c-7.867-3.881-16.116-6.862-24.355-9.843c-3.839-1.389-7.717-2.697-11.744-3.42
				c-4.184-0.751-8.403-0.756-12.636-0.573c-4.143,0.179-8.281,0.621-12.411,0.977c-3.561,0.306-7.029,0.188-10.592-0.027"/>
		</g>
		<g id="POLYLINE_3_">
			
				<path fill="none" stroke="#FB8604" stroke-width="2.75" stroke-linecap="round" stroke-linejoin="round" stroke-miterlimit="10" d="
				M529.657,551.507c0.321-1.602-0.01-2.679-1.147-3.87c-2.213-2.315-4.958-4.766-8.006-5.892
				c-6.717-2.48-13.408,1.582-19.584,3.653c-3.872,1.3-7.861,2.292-11.891,2.957c-3.754,0.618-7.531,0.664-11.324,0.547
				c-5.758-0.179-11.478-0.038-17.237,0.109"/>
		</g>
		<g id="POLYLINE_4_">
			
				<path fill="none" stroke="#FB8604" stroke-width="2.75" stroke-linecap="round" stroke-linejoin="round" stroke-miterlimit="10" d="
				M529.657,551.507c-0.447,1.078-1.231,2.045-2.453,2.177c-2.43,0.263-4.175-2.117-5.95-3.327
				c-4.09-2.786-9.229-0.473-12.541,2.463c-2.377,2.106-4.629,3.835-7.631,4.951c-2.976,1.106-6.172,1.692-9.338,1.838"/>
		</g>
		<g id="POLYLINE_5_">
			
				<path fill="none" stroke="#FB8604" stroke-width="2.75" stroke-linecap="round" stroke-linejoin="round" stroke-miterlimit="10" d="
				M372.902,540.651c-4.246,0.113-8.467,0.287-12.673,0.916c-4.125,0.617-8.196,1.54-12.27,2.427
				c-4.272,0.93-8.536,1.993-12.88,2.54c-4.205,0.529-8.479,0.665-12.713,0.657c-2.159-0.004-4.314-0.095-6.468-0.256"/>
		</g>
		<g id="POLYLINE_6_">
			
				<path fill="none" stroke="#FB8604" stroke-width="2.75" stroke-linecap="round" stroke-linejoin="round" stroke-miterlimit="10" d="
				M436.231,429.402c-1.768,3.979-3.579,7.938-5.177,11.988c-1.678,4.252-3.045,8.629-4.496,12.962
				c-1.062,3.177-2.068,6.825-4.099,9.543c-0.52,0.695-1.997,1.574-1.927,2.573c0.053,0.76,1.035,1.158,1.473,1.665
				c0.984,1.138,0.859,2.924,0.533,4.293c-0.305,1.273-1.183,2.496-0.519,3.767c2.038,3.896,4.034,7.806,5.998,11.743
				c1.886,3.779,3.911,7.425,6.116,11.027c2.377,3.882,4.543,7.886,6.759,11.859c1.953,3.502,3.925,7.011,6.11,10.375
				c2.182,3.359,4.826,6.526,6.548,10.162c1.382,2.919,1.552,5.914,1.115,9.081c-0.196,1.424-0.69,3.122-0.448,4.58
				c0.062,0.372,0.201,0.684,0.448,0.97c0.792,0.914,2.181,1.406,3.24,1.9c1.884,0.879,3.819,1.65,5.755,2.403
				c4.195,1.633,8.435,3.128,12.696,4.574c4.092,1.389,8.209,2.691,12.358,3.896c3.947,1.145,7.958,2.223,12.047,2.705
				c3.633,0.429,7.238,0.073,10.855-0.324c4.668-0.514,9.35-1.18,14.043-1.422c1.433-0.074,2.905-0.112,4.305,0.255
				c1.841,0.485,3.645,1.237,5.414,1.934c2.449,0.963,5.234,2.156,6.963,4.23c1.493,1.791,2.217,5.701-1.045,5.871
				c-2.749,0.143-5.227-1.524-7.785-2.249c-3.301-0.935-6.814-0.387-10.135,0.167c-4.237,0.708-8.426,1.678-12.688,2.236
				c-3.769,0.494-7.566,0.693-11.363,0.801c-9.453,0.267-18.897,0.444-28.326,1.2c-8.385,0.672-16.684,2.168-24.913,3.868"/>
		</g>
		<g id="POLYLINE_7_">
			
				<path fill="none" stroke="#FB8604" stroke-width="2.75" stroke-linecap="round" stroke-linejoin="round" stroke-miterlimit="10" d="
				M639.217,289.626c-1.353,3.863-2.883,7.516-5.355,10.814c-2.434,3.25-5.225,6.218-8.212,8.963
				c-3.067,2.818-6.371,5.365-9.939,7.518c-3.644,2.198-7.501,4.045-11.011,6.463c-6.776,4.668-11.416,11.66-16.116,18.263
				c-5.073,7.127-10.217,14.18-16.004,20.754c-5.759,6.542-11.853,12.753-18.329,18.588c-6.771,6.1-13.85,11.819-20.937,17.545
				c-7.059,5.703-14.239,11.262-21.358,16.889c-6.541,5.17-12.884,10.62-18.961,16.327c-5.822,5.469-11.326,11.288-16.677,17.217
				c-6.376,7.065-12.747,14.133-19.097,21.22c-5.812,6.485-11.776,12.88-16.827,19.993c-2.132,3.001-4.011,6.167-5.931,9.305"/>
		</g>
		<g id="POLYLINE_8_">
			
				<path fill="none" stroke="#FB8604" stroke-width="2.75" stroke-linecap="round" stroke-linejoin="round" stroke-miterlimit="10" d="
				M521.403,221.12c-2.812,1.954-5.188,4.338-7.104,7.178c-2.361,3.5-3.802,7.42-5.3,11.337c-1.34,3.501-2.83,6.903-4.908,10.038
				c-1.674,2.525-3.695,5.18-6.373,6.708c-2.672,1.524-6.096,1.607-9.053,2.132c-4.273,0.759-8.535,1.646-12.743,2.714
				c-4.103,1.042-8.136,2.315-12.104,3.789c-3.873,1.439-7.767,3.054-11.319,5.178c-7.108,4.249-11.106,11.144-13.847,18.756
				c-2.243,6.23-3.713,12.926-3.623,19.572"/>
		</g>
		<g id="POLYLINE_9_">
			
				<path fill="none" stroke="#FB8604" stroke-width="2.75" stroke-linecap="round" stroke-linejoin="round" stroke-miterlimit="10" d="
				M521.403,221.12c2.841-1.59,5.726-2.299,8.96-2.75c4.188-0.583,8.416-0.816,12.641-0.641c7.16,0.297,14.994,2.059,20.263,7.243
				c5.179,5.096,7.502,12.637,7.932,19.738c0.425,7.021-0.784,14.669-5.423,20.219c-4.518,5.406-11.338,7.961-18.153,8.896
				c-7.417,1.017-15.537,0.43-22.497-2.459c-3.654-1.517-6.855-3.844-10.289-5.768c-3.68-2.061-7.568-2.95-11.779-2.91
				c-4.066,0.038-8.104,0.724-12.092,1.468c-4.145,0.773-8.252,1.77-12.309,2.912c-7.99,2.248-16.05,5.119-23.25,9.299
				c-2.14,1.242-4.161,2.491-5.5,4.614c-2.13,3.378-3.361,7.395-4.631,11.152c-1.336,3.953-2.428,8.019-3.23,12.113
				c-0.75,3.831-1.116,7.653-0.422,11.52c0.371,2.064,0.889,4.099,1.057,6.194c0.158,1.976,0.051,3.962-0.141,5.931
				c-0.401,4.129-1.148,8.25-2.023,12.303c-1.866,8.65-3.625,17.331-5.619,25.953c-0.464,2.005-0.922,4.015-1.473,5.999
				c-0.609,2.197-1.326,4.393-1.754,6.636c-0.305,1.603-0.58,3.62,0.502,5.015c1.344,1.731,4.021,2.142,6.024,2.4"/>
		</g>
		<g id="POLYLINE_10_">
			
				<path fill="none" stroke="#FB8604" stroke-width="2.75" stroke-linecap="round" stroke-linejoin="round" stroke-miterlimit="10" d="
				M485.348,342.464c8.76-1.945,17.465-3.991,26.111-6.397c8.13-2.263,16.179-4.934,24.115-7.796
				c8.697-3.137,17.312-6.452,25.869-9.949c7.771-3.176,15.354-6.75,22.977-10.263c8.107-3.736,16.147-7.77,24.474-11.009
				c3.915-1.523,7.89-2.905,11.997-3.811c4.232-0.933,8.552-1.352,12.811-2.139c3.787-0.701,7.428-1.896,10.529-4.251
				c2.449-1.859,4.473-4.214,6.037-6.855c3.354-5.666,4.973-13.076,2.919-19.47c-2.269-7.065-9.255-10.974-15.438-14.193
				c-3.844-2.001-7.757-3.903-11.658-5.788c-3.552-1.716-7.166-3.465-11.084-4.15c-4.393-0.769-8.952-0.576-13.391-0.635
				c-4.07-0.054-8.158-0.082-12.218-0.404c-2.03-0.162-4.087-0.309-6.074-0.775c-0.813-0.191-1.677-0.435-2.35-0.95
				c-0.771-0.59-1.121-1.492-1.412-2.388c-0.627-1.931-1.007-3.935-1.628-5.869c-2.428-7.564-7.219-13.691-13.888-17.995
				c-6.151-3.969-13.484-6.167-20.821-5.336c-7.4,0.838-15.729,4.369-19.352,11.269c-1.281,2.44-1.926,5.129-2.47,7.812"/>
		</g>
		<g id="POLYLINE_11_">
			
				<path fill="none" stroke="#FB8604" stroke-width="2.75" stroke-linecap="round" stroke-linejoin="round" stroke-miterlimit="10" d="
				M148.423,438.646c1.96-3.46,4.21-6.832,7.45-9.224c3.115-2.3,6.878-3.553,10.543-4.668c8.318-2.53,16.624-4.77,24.587-8.329
				c7.646-3.418,14.617-8.035,20.563-13.945c6.562-6.525,12.315-13.84,18.241-20.933c5.454-6.527,11.167-12.823,16.919-19.086
				c5.863-6.383,11.966-12.562,18.184-18.598c5.807-5.638,12.008-11.76,19.537-15.024c3.386-1.468,6.98-2.474,10.58-3.266
				c5.391-1.186,10.781-2.372,16.173-3.558c8.02-1.764,15.982-3.84,23.858-6.161c8.191-2.414,16.363-5.125,24.119-8.724
				c7.977-3.702,15.412-8.276,22.688-13.192c7.584-5.123,15.017-10.481,22.516-15.726c6.719-4.699,13.655-9.145,20.805-13.159
				c7.808-4.382,15.838-8.303,23.94-12.105c7.774-3.648,15.601-7.233,23.626-10.3c7.953-3.039,16.129-5.436,24.494-7.031
				c4.703-0.897,9.434-1.582,14.189-2.132"/>
		</g>
		<g id="POLYLINE_12_">
			
				<path fill="none" stroke="#FB8604" stroke-width="2.75" stroke-linecap="round" stroke-linejoin="round" stroke-miterlimit="10" d="
				M240.25,439.723c8.53,1.927,16.799,4.563,24.93,7.776c7.938,3.137,15.794,6.692,23.247,10.857
				c7.299,4.08,14.261,8.935,20.031,15.025c5.383,5.683,9.619,12.454,12.517,19.72c2.938,7.368,4.844,15.547,3.931,23.511
				c-0.452,3.943-1.639,7.774-3.134,11.439c-0.837,2.053-1.764,4.095-2.447,6.206c-0.623,1.921-0.815,3.885-1.13,5.869
				c-1.179,7.452-6.347,13.921-12.434,18.108c-4.118,2.834-8.736,4.993-13.613,6.138"/>
		</g>
		<g id="POLYLINE_13_">
			
				<path fill="none" stroke="#FB8604" stroke-width="2.75" stroke-linecap="round" stroke-linejoin="round" stroke-miterlimit="10" d="
				M239.794,551.602c8.329-0.455,16.754,0.469,24.706,3.036c4.068,1.313,7.854,3.288,11.771,4.975
				c3.685,1.587,7.483,2.899,11.396,3.804c8.551,1.977,17.288,2.966,26.017,3.776c8.826,0.82,17.685,1.298,26.537,1.724
				c8.497,0.409,17.001,0.708,25.504,0.931c8.505,0.223,17.013,0.46,25.521,0.5c9.543,0.044,19.091-0.009,28.632,0.175
				c3.964,0.076,8.007,0.2,11.905,0.979c3.555,0.711,6.662,2.562,9.842,4.217c3.749,1.951,7.578,3.81,11.103,6.156
				c1.565,1.042,3.677,2.491,4.256,4.436c0.884,2.964-3.398,3.399-5.306,2.78c-2.946-0.956-5.096-3.59-7.768-5.071
				c-3.266-1.811-7.082-2.453-10.767-2.684c-8.239-0.517-16.53,0.962-24.649,2.164c-9.254,1.371-18.504,2.738-27.739,4.232
				c-3.629,0.587-7.241,1.274-10.854,1.955"/>
		</g>
		<g id="POLYLINE_14_">
			
				<path fill="none" stroke="#FB8604" stroke-width="2.75" stroke-linecap="round" stroke-linejoin="round" stroke-miterlimit="10" d="
				M269.015,492.401c-0.407-4.092-0.386-8.222-2.005-12.078c-1.445-3.442-3.862-6.365-6.411-9.049
				c-5.682-5.982-12.581-10.973-19.598-15.265c-7.401-4.526-15.146-8.481-23.25-11.595c-7.798-2.995-15.88-5.079-24.126-6.38
				c-8.41-1.326-16.995-1.758-25.499-1.427c-8.627,0.335-17.231,1.36-25.669,3.2c-4.141,0.902-8.263,1.984-12.26,3.398
				c-3.849,1.362-7.801,2.854-11.138,5.255c-3.183,2.289-5.533,5.544-7.527,8.872c-2.104,3.515-3.864,7.234-5.372,11.04
				c-2.914,7.352-5.13,15.267-5.059,23.233c0.069,7.721,2.888,14.702,7.398,20.885c4.929,6.755,11.004,12.746,17.134,18.405
				c6.534,6.033,13.131,12.004,19.588,18.119c3.3,3.125,6.549,6.29,9.703,9.562c3.017,3.131,5.91,6.381,8.942,9.497
				c2.576,2.647,5.278,5.357,8.572,7.104c3.242,1.719,6.929,2.28,10.521,2.77c8.376,1.139,16.846,1.463,25.276,1.957
				c9.483,0.556,18.962,1.113,28.438,1.792c8.523,0.611,17.034,1.481,25.534,2.357c8.521,0.878,17.048,1.782,25.542,2.904
				c9.532,1.26,19.006,2.776,28.496,4.322c8.389,1.367,16.798,1.54,25.276,1.756c8.336,0.213,16.447,1.042,24.456,3.464
				c1.983,0.601,3.92,1.351,5.903,1.951c0.952,0.288,2.099,0.677,3.114,0.532c0.551-0.078,0.941-0.337,1.099-0.88
				c0.33-1.142-0.389-2.561-0.979-3.489c-1.958-3.084-5.417-5.087-8.364-7.086c-3.328-2.258-6.696-4.572-10.446-6.078
				c-3.861-1.551-7.919-2.129-12.054-2.322c-8.649-0.404-17.31,0.191-25.96-0.369c-8.505-0.552-17.014-1.687-25.322-3.607
				c-8.389-1.939-16.534-4.568-24.347-8.205c-7.834-3.646-15.166-8.222-22.766-12.311c-7.957-4.281-16.469-7.181-24.929-10.286
				c-7.891-2.896-15.665-6.218-23.26-9.813c-7.858-3.721-15.256-8.101-22.314-13.176c-7.301-5.25-14.176-11.08-21.104-16.802
				c-6.659-5.498-13.166-11.191-19.744-16.788c-0.002-0.001-0.004-0.003-0.006-0.005"/>
		</g>
		<g id="POLYLINE_15_">
			
				<path fill="none" stroke="#FB8604" stroke-width="2.75" stroke-linecap="round" stroke-linejoin="round" stroke-miterlimit="10" d="
				M413.326,400.144c-6.992,5.603-13.809,11.369-20.418,17.422c-6.244,5.719-12.238,11.791-17.851,18.133
				c-5.765,6.514-11.563,13.18-16.557,20.313c-2.331,3.329-3.969,6.724-5.233,10.583c-1.288,3.932-2.731,7.98-3.471,12.062
				c-0.626,3.451-0.144,6.71,0.885,10.036c1.301,4.207,3.026,8.274,4.692,12.347c3.215,7.859,6.679,15.648,10.172,23.388
				c3.778,8.368,7.536,16.745,11.49,25.031c1.703,3.569,3.367,7.331,5.751,10.51c2.064,2.752,5.129,4.699,8.232,6.088
				c4.337,1.941,8.938,3.189,13.527,4.37"/>
		</g>
	</g>
</g>
<g id="AG-OUTLINE">
	<g>
		<g id="POLYLINE_34_">
			
				<path fill="none" stroke="#FB8604" stroke-width="3.5" stroke-linecap="round" stroke-linejoin="round" stroke-miterlimit="10" d="
				M307.071,557.283c4.031,0.243,7.915,0.257,11.938-0.089c4.549-0.392,9.103-0.852,13.67-0.956
				c4.103-0.094,8.194,0.176,12.199,1.11c4.021,0.938,7.893,2.367,11.766,3.778c7.507,2.734,14.992,5.505,22.165,9.043
				c-8.882-0.219-17.759-0.441-26.638-0.774c-8.874-0.333-17.746-0.718-26.609-1.294c-8.543-0.555-17.114-1.214-25.59-2.45
				c-2.617-0.382-5.226-0.794-7.825-1.278C297.554,563.069,302.625,560.615,307.071,557.283z"/>
		</g>
		<g id="POLYLINE_33_">
			
				<path fill="none" stroke="#FB8604" stroke-width="3.5" stroke-linecap="round" stroke-linejoin="round" stroke-miterlimit="10" d="
				M148.423,438.646c-8.353,1.49-16.727,3.499-24.469,7.049c-3.661,1.678-6.839,3.913-9.334,7.108
				c-2.471,3.163-4.459,6.699-6.175,10.32c-3.37,7.11-6.062,14.824-6.995,22.668c-0.928,7.801,0.22,15.303,4.114,22.165
				c4.043,7.125,9.948,13.181,15.795,18.842c6.936,6.715,14.111,13.182,21.203,19.729c6,5.539,11.69,11.334,17.279,17.283
				c5.071,5.397,10.007,11.349,17.505,13.16c3.997,0.967,8.188,1.364,12.276,1.719c3.425,0.296,6.846,0.526,10.277,0.728
				c9.517,0.558,19.045,1.01,28.553,1.691c8.678,0.622,17.363,1.258,26.018,2.149c9.774,1.007,19.531,2.064,29.289,3.217
				c8.183,0.966,16.323,2.173,24.454,3.498c4.512,0.735,9.015,1.528,13.553,2.088c3.916,0.482,7.865,0.674,11.808,0.774
				c8.868,0.226,17.809,0.175,26.514,2.102c4.128,0.913,8.024,2.423,12.072,3.598c0.919,0.267,2.806,0.965,3.651,0.102
				c0.546-0.558,0.352-1.548,0.155-2.207c-0.605-2.038-2.206-3.67-3.791-4.995c-0.735-0.614-1.501-1.188-2.276-1.748
				c7.895-1.488,15.813-2.815,23.761-3.988c9.484-1.399,18.971-3.05,28.512-4.034c3.971-0.41,8.016-0.613,11.999-0.252
				c3.587,0.325,7.29,1.053,10.386,2.987c3.012,1.882,7.592,7.08,11.629,4.258c3.23-2.259-2.503-6.163-3.988-7.133
				c-1.965-1.282-4.037-2.39-6.108-3.487c8.365-1.729,16.792-3.218,25.315-3.9c9.404-0.754,18.831-0.912,28.258-1.178
				c3.854-0.108,7.697-0.354,11.52-0.855c4.271-0.56,8.475-1.55,12.721-2.259c3.275-0.547,6.721-0.977,9.95,0.02
				c2.435,0.751,4.911,2.375,7.56,2.142c3.227-0.285,2.365-4.226,0.85-5.96c-1.872-2.141-4.775-3.307-7.355-4.321
				c-1.666-0.654-3.389-1.387-5.135-1.794c-1.44-0.336-2.945-0.275-4.41-0.191c-4.75,0.274-9.486,0.938-14.213,1.458
				c-3.607,0.396-7.178,0.671-10.797,0.224c-2.914-0.36-5.771-1.07-8.607-1.812c3.551-0.163,7.145-0.879,10.426-2.266
				c1.371-0.58,2.67-1.303,3.851-2.214c1.567-1.209,2.926-2.68,4.564-3.797c1.867-1.273,4.091-2.138,6.362-2.238
				c2.524-0.111,4.264,1.148,6.115,2.705c1.271,1.069,2.967,2.386,4.744,1.752c1.269-0.452,1.937-1.848,2.008-3.109
				c0.104-1.828-1.592-3.158-2.828-4.235c-2.372-2.066-4.812-4.232-7.981-4.892c-7.252-1.508-13.903,2.927-20.585,4.871
				c-3.91,1.137-7.9,2.077-11.954,2.514c-4.171,0.449-8.369,0.215-12.551,0.085c-4.417-0.137-8.851,0.109-13.265,0.223
				c-0.76,0.02-1.787-0.68-2.486-0.996c-0.818-0.37-1.635-0.757-2.412-1.206c-0.516-0.299-1.082-0.657-1.359-1.209
				c-0.248-0.494-0.223-1.078-0.186-1.614c0.133-1.96,0.58-3.885,0.674-5.852c0.153-3.213-0.775-6.054-2.425-8.797
				c-2.112-3.514-4.659-6.744-6.78-10.256c-2.262-3.743-4.395-7.559-6.524-11.377c-1.128-2.021-2.247-4.045-3.403-6.049
				c-0.236-0.41-1.422-1.941-1.209-2.289c0.728-1.189,1.455-2.378,2.183-3.566c2.148-3.512,4.501-6.866,7.038-10.107
				c5.811-7.426,12.374-14.287,18.66-21.303c5.343-5.962,10.639-11.98,16.094-17.84c6.08-6.532,12.289-12.904,18.922-18.879
				c5.924-5.335,12.125-10.35,18.377-15.291c7.73-6.11,15.475-12.202,23.139-18.396c6.643-5.366,13.156-10.893,19.373-16.75
				c6.255-5.894,12.18-12.174,17.639-18.814c5.648-6.87,10.738-14.124,15.893-21.366c2.317-3.254,4.812-6.45,7.626-9.292
				c2.774-2.801,5.983-5.051,9.415-6.974c3.848-2.156,7.747-4.228,11.3-6.859c3.331-2.467,6.415-5.269,9.265-8.276
				c2.745-2.896,5.303-6.042,7.156-9.591c0.934-1.792,1.639-3.686,2.305-5.59c0.211-0.603,0.196-0.798,0.77-1.03
				c0.449-0.182,0.893-0.383,1.326-0.599c0.99-0.493,1.937-1.069,2.836-1.713c5.275-3.778,8.635-9.917,9.795-16.225
				c1.162-6.309-0.133-12.628-4.789-17.201c-3.055-3-6.846-5.15-10.615-7.113c-3.98-2.073-8.04-4.005-12.061-6.001
				c-3.424-1.7-6.965-3.367-10.736-4.113c-4.277-0.847-8.752-0.651-13.088-0.708c-4.234-0.056-8.469-0.125-12.696-0.396
				c-1.957-0.125-3.937-0.297-5.86-0.688c-0.899-0.183-1.874-0.41-2.65-0.928c-0.793-0.529-1.184-1.338-1.49-2.214
				c-0.653-1.863-1.01-3.823-1.586-5.71c-1.143-3.746-2.846-7.327-5.217-10.455c-4.402-5.808-10.926-10.073-17.86-12.216
				c-7.687-2.375-16.208-1.385-23.237,2.509c-3.143,1.74-5.937,4.111-7.694,7.283c-0.909,1.642-1.534,3.42-2.005,5.232
				c-0.227,0.87-0.418,1.747-0.596,2.628c-0.135,0.66-1.336,1.226-1.867,1.654c-2.63,2.119-4.75,4.75-6.441,7.663
				c-0.514,0.884-0.98,1.791-1.424,2.711c-0.318,0.662-0.297,0.647-1.027,0.731c-0.555,0.064-1.108,0.128-1.662,0.197
				c-2.275,0.286-4.543,0.61-6.809,0.964c-8.522,1.333-16.912,3.456-25.055,6.294c-8.414,2.935-16.523,6.635-24.627,10.323
				c-7.814,3.556-15.553,7.304-23.119,11.362c-7.45,3.994-14.643,8.441-21.639,13.183c-8.041,5.45-15.955,11.09-23.914,16.658
				c-6.593,4.611-13.396,8.906-20.557,12.579c-7.617,3.905-15.694,6.784-23.835,9.378c-8.458,2.696-17.077,4.866-25.707,6.93
				c-8.31,1.988-16.881,3.219-25.036,5.807c-3.904,1.238-7.509,2.995-10.861,5.351c-3.373,2.37-6.452,5.166-9.472,7.963
				c-6.405,5.937-12.523,12.188-18.517,18.538c-6.23,6.602-12.277,13.355-18.219,20.218c-5.653,6.527-10.933,13.37-16.781,19.729
				c-5.69,6.188-12.134,11.42-19.608,15.302c-7.596,3.944-15.711,6.607-23.91,8.973c-3.945,1.138-7.987,2.158-11.723,3.9
				c-3.497,1.631-6.337,4.053-8.58,7.188C150.104,435.765,149.246,437.193,148.423,438.646z"/>
		</g>
	</g>
</g>
</svg>
